<?xml version="1.0" encoding="utf-8"?>
<!-- Generator: Adobe Illustrator 27.2.0, SVG Export Plug-In . SVG Version: 6.00 Build 0)  -->
<svg version="1.1" id="Capa_1" xmlns="http://www.w3.org/2000/svg" width="180" height="50" xmlns:xlink="http://www.w3.org/1999/xlink" x="0px" y="0px"
	 viewBox="0 0 160.5 52.7" style="enable-background:new 0 0 160.5 52.7;" xml:space="preserve">
<style type="text/css">
	.st0{fill:#EFDD0B;}
	.st1{fill:#3460AA;}
</style>
<path class="st0" d="M34.2,28.8c0-2.8,0-5.5,0-8.3c0-0.7,0.2-1.5,0.4-2.2c0.3-1.1,0.8-2.2,1.5-3.1c1.1-1.5,2.6-2.4,4.5-2.8
	c1.7-0.3,3.3-0.2,4.8,0.5c1.2,0.6,2.2,1.4,3,2.5c0.2,0.3,0.3,0.2,0.4,0c1.3-1.8,3-2.8,5.2-3.1c2-0.2,3.9,0.2,5.5,1.4
	c1.5,1,2.3,2.5,2.8,4.2c0.5,1.5,0.6,3.1,0.6,4.7c0,4.8,0,9.7,0,14.5c0,0.4-0.1,0.4-0.4,0.4c-0.8,0-1.6,0-2.4,0
	c-0.4,0-0.5-0.1-0.5-0.5c0-4.7,0-9.3,0-14c0-1.3-0.1-2.7-0.4-4c-0.5-1.7-1.4-3-3.3-3.4c-1.3-0.3-2.6-0.2-3.8,0.6
	c-0.8,0.6-1.2,1.4-1.5,2.3c-0.3,1.1-0.5,2.3-0.5,3.5c0,5,0,10,0,15c0,0.4-0.1,0.5-0.5,0.4c-0.8,0-1.7,0-2.5,0
	c-0.3,0-0.4-0.1-0.4-0.4c0-4.8,0-9.7,0-14.5c0-1.4-0.1-2.8-0.5-4.1c-0.5-1.5-1.4-2.5-3-2.8c-1.6-0.3-3.2-0.2-4.4,1.2
	c-0.7,0.8-1.1,1.8-1.3,2.9c-0.2,1.2-0.2,2.4-0.2,3.7c0,4.6,0,9.1,0,13.7c0,0.3-0.1,0.4-0.4,0.4c-0.8,0-1.7,0-2.5,0
	c-0.3,0-0.4-0.1-0.4-0.4C34.1,34.3,34.1,31.5,34.2,28.8L34.2,28.8z"/>
<path class="st0" d="M84,37.2c-0.4-0.5-0.9-0.9-1.3-1.4c-0.3-0.4-0.7-0.6-0.9-1c0-0.1-0.1-0.2-0.3,0c-1.2,1.3-2.8,2.1-4.5,2.5
	c-2.5,0.5-4.8,0.1-7-1.2c-1.4-0.9-2.3-2.1-3-3.7c-0.6-1.4-0.7-2.9-0.6-4.4c0.2-1.7,0.9-3.2,2-4.5c0.8-0.9,1.7-1.6,2.8-2.1
	c1.6-0.7,3.3-1,5-0.8c1,0.1,2,0.3,2.9,0.7c2.2,1,3.5,2.7,4.3,5c0.4,1.1,0.5,2.3,0.5,3.5c0,2.3,0,4.6,0,6.9L84,37.2
	C84.1,37.1,84.1,37.1,84,37.2 M80.8,29c0-0.5,0-0.8-0.1-1.2c-0.9-4.6-5.9-5.8-8.8-3.4c-1.5,1.3-2.1,2.9-2,4.9c0.1,3.5,3.3,6,6.7,5.2
	C79.1,33.8,80.8,31.6,80.8,29"/>
<path class="st0" d="M100.4,27c-0.4,0-0.9,0-1.3,0c-0.2,0-0.3,0-0.4-0.3c-0.2-0.9-0.6-1.7-1.2-2.3c-0.5-0.6-1.3-1-2.1-1.2
	c-1-0.2-2-0.1-2.9,0.4c-0.8,0.4-1.4,1.2-1.7,2c-0.1,0.2,0,0.3,0.2,0.3c0.9,0.4,1.9,0.8,2.8,1.2c2,0.9,4.1,1.8,6.1,2.7
	c0.5,0.2,1,0.5,1.6,0.7c0.3,0.1,0.5,0.3,0.4,0.7c-0.4,1.5-1,3-2.1,4.1c-1.1,1.1-2.4,1.8-4,2c-1.6,0.2-3.1,0.1-4.6-0.7
	c-1.6-0.8-2.6-2-3.3-3.5c-0.3-0.6-0.5-1.3-0.7-1.9c-0.1-0.2,0-0.4,0.3-0.4c0.9,0,1.7,0,2.6,0c0.3,0,0.3,0.1,0.4,0.3
	c0.3,1.2,0.9,2.3,2,3c1.3,0.8,3.3,0.7,4.5-0.2c0.6-0.4,1-0.9,1.3-1.6c0.1-0.2,0.2-0.4-0.2-0.5c-1.8-0.8-3.7-1.6-5.5-2.4
	c-1.6-0.7-3.3-1.4-4.9-2.1c-0.5-0.2-0.5-0.2-0.3-0.9c0.3-1,0.7-2,1.3-2.9c1.2-1.8,2.8-2.8,4.9-3c1.5-0.2,2.9,0,4.3,0.7
	c1.8,0.9,2.9,2.4,3.7,4.2c0.2,0.4,0.3,0.9,0.4,1.4c0.1,0.2,0,0.3-0.2,0.3C101.3,27,100.8,27,100.4,27"/>
<path class="st0" d="M79.1,14.6c-0.7,1.5-1.4,2.9-2.1,4.2C76.9,19,76.8,19,76.7,19c-0.9,0-1.8,0-2.6,0c-0.3,0-0.3-0.1-0.2-0.3
	c0.7-1.3,1.3-2.7,2-3.9c0.1-0.1,0.1-0.2,0.3-0.2C77.2,14.6,78.1,14.6,79.1,14.6"/>
<path class="st1" d="M129.8,35.1v0.4c0,3.7,0,7.5,0,11.2c0,0.3-0.1,0.3-0.3,0.3c-0.9,0-1.8,0-2.7,0c-0.2,0-0.3,0-0.3-0.3
	c0-5.8,0-11.5,0-17.3c0-1.4,0.3-2.7,0.8-4c0.3-0.8,0.8-1.5,1.4-2.2c1.3-1.5,3-2.2,4.9-2.5c2-0.3,3.8,0,5.6,0.9
	c2.3,1.2,3.8,3.2,4.3,5.8c0.4,2.5-0.1,4.9-1.7,6.9c-1,1.2-2.3,2-3.9,2.5c-1.1,0.3-2.3,0.5-3.5,0.4c-0.6,0-1.3-0.2-1.9-0.4
	C131.6,36.5,130.7,35.9,129.8,35.1 M140.5,28.8c0-0.5-0.1-1.1-0.2-1.6c-0.6-2-1.7-3.3-3.7-3.8c-2-0.5-3.8-0.1-5.2,1.4
	c-1.4,1.5-1.8,3.3-1.4,5.3c0.8,3.8,4.6,5.1,7.5,3.7C139.6,32.8,140.4,31,140.5,28.8"/>
<path class="st1" d="M158.9,27.1c-0.5,0-0.9,0-1.4,0c-0.1,0-0.2,0-0.2-0.2c-0.3-1.4-1-2.5-2.2-3.2c-0.8-0.4-1.6-0.5-2.5-0.4
	c-0.9,0.1-1.6,0.5-2.2,1.1c-0.4,0.4-0.6,0.8-0.8,1.3c-0.1,0.1-0.1,0.2,0.1,0.3c3,1.3,6,2.6,9,3.9c0.5,0.2,1.1,0.5,1.6,0.7
	c0.2,0.1,0.2,0.1,0.2,0.3c-0.3,1.3-0.8,2.6-1.6,3.7c-0.9,1.2-2,1.9-3.4,2.3c-0.9,0.3-1.9,0.4-2.9,0.3c-1.3-0.1-2.5-0.5-3.6-1.3
	c-1.3-1-2.1-2.3-2.6-3.8c-0.1-0.3-0.2-0.7-0.3-1c0-0.2,0-0.2,0.2-0.2c0.9,0,1.8,0,2.7,0c0.1,0,0.2,0,0.2,0.2
	c0.1,0.7,0.4,1.3,0.7,1.9c0.6,1,1.5,1.5,2.6,1.7c1.2,0.2,2.2-0.1,3.2-0.8c0.6-0.4,0.9-1,1.1-1.6c0-0.1,0.1-0.1-0.1-0.2
	c-1.5-0.6-2.9-1.3-4.4-1.9c-1.5-0.7-3.1-1.3-4.6-2c-0.5-0.2-1.1-0.5-1.6-0.7c-0.2-0.1-0.2-0.2-0.2-0.3c0.2-0.9,0.5-1.8,0.9-2.6
	c1-1.8,2.4-3.1,4.5-3.5c1.7-0.3,3.3-0.2,4.8,0.5c1.2,0.6,2.2,1.5,2.9,2.7c0.5,0.9,0.9,1.8,1.1,2.9c0,0.2,0,0.2-0.1,0.2
	C159.9,27.1,159.4,27.1,158.9,27.1"/>
<path class="st0" d="M0,17.2c0-2.9,0.7-5.5,2.3-7.9C4,6.8,6.4,5.2,9.2,4.2c1.6-0.5,3.2-0.8,4.9-0.8c3.2,0.1,6.1,1,8.6,3
	c1.4,1.1,2.6,2.5,3.5,4.1c0.6,1.1,1.1,2.3,1.3,3.5c0.2,1.2,0.4,2.4,0.3,3.6c-0.1,1.4-0.4,2.7-0.8,4.1c-0.6,2-1.6,3.7-2.9,5.3
	c-0.2,0.2-0.4,0.4-0.5,0.6c0,0.1-0.1,0.1-0.2,0c-0.5-0.4-1-0.9-1.5-1.3c-0.5-0.4-1.1-0.9-1.6-1.3c-0.4-0.3-0.8-0.7-1.2-1
	c-0.1-0.1-0.3-0.3-0.4-0.4c-0.2-0.1-0.1-0.2,0-0.3c0.5-0.6,1-1.3,1.4-2c0.5-0.8,0.8-1.7,1-2.6c0.2-0.8,0.3-1.6,0.2-2.5
	c-0.1-1.4-0.6-2.6-1.5-3.7c-0.8-1.1-1.9-1.8-3.1-2.2c-1-0.4-2-0.6-3-0.5c-1.1,0.1-2.2,0.3-3.2,0.8C9.7,11,9,11.4,8.4,12
	c-0.7,0.7-1.2,1.6-1.5,2.5c-0.2,0.8-0.5,1.6-0.5,2.4c0,0.1,0,0.2-0.2,0.2c-0.9,0.2-1.7,0.3-2.6,0.5c-1.1,0.2-2.1,0.4-3.2,0.6
	c-0.1,0-0.1,0-0.2,0c-0.1,0-0.3,0.1-0.4,0C0,18.2,0,18,0,17.9C0,17.6,0,17.4,0,17.2"/>
<path class="st1" d="M0,17.2c0-2.9,0.7-5.5,2.3-7.9C4,6.8,6.4,5.2,9.2,4.2c1.6-0.5,3.2-0.8,4.9-0.8c3.2,0.1,6.1,1,8.6,3
	c1.4,1.1,2.6,2.5,3.5,4.1c0.6,1.1,1.1,2.3,1.3,3.5c0.2,1.2,0.4,2.4,0.3,3.6c-0.1,1.4-0.4,2.7-0.8,4.1c-0.6,2-1.6,3.7-2.9,5.3
	c-0.2,0.2-0.4,0.4-0.5,0.6c0,0.1-0.1,0.1-0.2,0c-0.5-0.4-1-0.9-1.5-1.3c-0.5-0.4-1.1-0.9-1.6-1.3c-0.4-0.3-0.8-0.7-1.2-1
	c-0.1-0.1-0.3-0.3-0.4-0.4c-0.2-0.1-0.1-0.2,0-0.3c0.5-0.6,1-1.3,1.4-2c0.5-0.8,0.8-1.7,1-2.6c0.2-0.8,0.3-1.6,0.2-2.5
	c-0.1-1.4-0.6-2.6-1.5-3.7c-0.8-1.1-1.9-1.8-3.1-2.2c-1-0.4-2-0.6-3-0.5c-1.1,0.1-2.2,0.3-3.2,0.8C9.7,11,9,11.4,8.4,12
	c-0.7,0.7-1.2,1.6-1.5,2.5c-0.2,0.8-0.5,1.6-0.5,2.4c0,0.1,0,0.2-0.2,0.2c-0.9,0.2-1.7,0.3-2.6,0.5c-1.1,0.2-2.1,0.4-3.2,0.6
	c-0.1,0-0.1,0-0.2,0c-0.1,0-0.3,0.1-0.4,0C0,18.2,0,18,0,17.9C0,17.6,0,17.4,0,17.2"/>
<path class="st0" d="M0.4,20.7c0-0.2,0-0.2,0.2-0.2c1.5-0.3,2.9-0.6,4.4-0.9c0.5-0.1,1.1-0.2,1.6-0.3c0.2,0,0.2,0,0.3,0.2
	c0.3,0.9,0.6,1.8,1.1,2.6c0.6,1.1,1.4,2.2,2.1,3.2c0.9,1.2,2,2.3,3.1,3.4c0.1,0.1,0.2,0.2,0.3,0.3c0.1,0.2,0.3,0.1,0.4,0
	c0.9-0.8,1.8-1.7,2.6-2.6c0.2-0.2,0.5-0.5,0.7-0.7c0.2-0.2,0.3-0.2,0.4,0c0.5,0.4,1.1,0.9,1.6,1.3c1,0.8,2.1,1.7,3.1,2.5
	c0.1,0.1,0.1,0.1,0,0.2c-0.7,0.8-1.5,1.6-2.3,2.4c-1,0.9-2,1.9-3,2.8c-1,0.9-2,1.7-3.1,2.5c-0.1,0.1-0.2,0.1-0.4,0
	c-0.7-0.6-1.5-1.2-2.2-1.8c-0.7-0.6-1.4-1.2-2.1-1.8c-0.8-0.7-1.5-1.4-2.1-2.1c-0.6-0.6-1.1-1.3-1.6-1.9C4.6,28.9,3.9,28,3.3,27
	c-0.6-0.9-1.2-1.9-1.7-2.9C1.1,23,0.7,21.9,0.4,20.7C0.4,20.7,0.4,20.7,0.4,20.7"/>
<path class="st1" d="M119.9,22.8c-1.6-1.5-3.9-2.2-5.6-2.2c-5.1,0-8.9,3.8-8.9,8.3c0,4.5,3.8,8.3,8.9,8.3c2.2,0,4.1-0.7,5.6-1.8v5.4
	h0c0,2-2,3.1-4.6,3.1c-2.5,0-4.4-1.1-4.4-3.1h-3.5c0,3.5,3.5,6.3,7.9,6.3c4.4,0,7.9-2.8,7.9-6.3V28.9v-0.8v-5.3H119.9z M114.3,34.5
	c-3.2,0-5.5-2.4-5.6-5.6c0-3.2,2.3-5.6,5.6-5.6c3.2,0,5.6,2.4,5.6,5.6C119.9,32.1,117.6,34.5,114.3,34.5"/>
</svg>
